<svg width="348" height="61" viewBox="0 0 348 61" fill="none" xmlns="http://www.w3.org/2000/svg">
<mask id="path-1-outside-1_434_80" maskUnits="userSpaceOnUse" x="-3" y="-3" width="354" height="67" fill="black">
<rect fill="white" x="-3" y="-3" width="354" height="67"/>
<path d="M0.666016 61V0.84375H16.9697C21.3447 0.84375 24.5234 1.91471 26.5059 4.05664C28.5111 6.17578 29.5137 9.6849 29.5137 14.584V17.2158C29.5137 20.0413 29.001 22.3314 27.9756 24.0859C26.973 25.8405 25.4349 26.9912 23.3613 27.5381C26.0729 28.2217 27.8844 29.8281 28.7959 32.3574C29.7301 34.8639 30.1973 37.9287 30.1973 41.5518C30.1973 45.4482 29.8327 48.8548 29.1035 51.7715C28.3743 54.6882 27.0527 56.9554 25.1387 58.5732C23.2246 60.1911 20.5016 61 16.9697 61H0.666016ZM12.4238 23.5049H14.8848C16.0013 23.5049 16.7191 23.0719 17.0381 22.2061C17.3571 21.3402 17.5166 20.3034 17.5166 19.0957V13.0459C17.5166 11.109 16.6621 10.1406 14.9531 10.1406H12.4238V23.5049ZM13.6201 50.4043C16.7419 50.4043 18.3027 48.9232 18.3027 45.9609V38.4414C18.3027 36.7324 18.0407 35.388 17.5166 34.4082C17.0153 33.4056 16.0583 32.9043 14.6455 32.9043H12.4238V50.3359C12.9251 50.3815 13.3239 50.4043 13.6201 50.4043ZM41.1621 61V0.84375H59.6191C62.6953 0.84375 65.0195 1.55013 66.5918 2.96289C68.1641 4.35286 69.2122 6.3125 69.7363 8.8418C70.2832 11.3483 70.5566 14.2992 70.5566 17.6943C70.5566 20.9756 70.1351 23.596 69.292 25.5557C68.4717 27.5153 66.9108 28.8711 64.6094 29.623C66.5007 30.0104 67.8223 30.9561 68.5742 32.46C69.349 33.9411 69.7363 35.8665 69.7363 38.2363V61H57.876V37.4502C57.876 35.6956 57.5114 34.6133 56.7822 34.2031C56.0758 33.7702 54.9251 33.5537 53.3301 33.5537V61H41.1621ZM53.3984 23.1289H56.3037C57.9671 23.1289 58.7988 21.3174 58.7988 17.6943C58.7988 15.3473 58.6165 13.8092 58.252 13.0801C57.8874 12.3509 57.2038 11.9863 56.2012 11.9863H53.3984V23.1289ZM79.8809 61L85.6914 0.84375H106.097L111.805 61H100.423L99.5684 51.293H92.3223L91.5703 61H79.8809ZM93.1768 41.6885H98.6455L96.0137 11.0977H95.4668L93.1768 41.6885ZM121.949 61V0.84375H133.57V61H121.949ZM145.355 61V0.84375H157.729L163.266 29.6572V0.84375H174.887V61H163.129L157.113 30.9219V61H145.355ZM191.936 61L185.476 0.84375H197.233L200.549 38.8174L203.933 0.84375H215.144L218.356 38.8174L221.569 0.84375H233.464L226.901 61H212.478L209.47 32.0498L206.599 61H191.936ZM241.455 61L247.266 0.84375H267.671L273.379 61H261.997L261.143 51.293H253.896L253.145 61H241.455ZM254.751 41.6885H260.22L257.588 11.0977H257.041L254.751 41.6885ZM288.104 61L280.687 0.80957H292.137L296.546 41.7568L300.477 0.80957H311.927L304.51 61H288.104ZM322.447 61V0.84375H346.51V12.4648H334.684V24.1885H346.031V35.502H334.684V49.2764H347.296V61H322.447Z"/>
</mask>
<path d="M0.666016 61V0.84375H16.9697C21.3447 0.84375 24.5234 1.91471 26.5059 4.05664C28.5111 6.17578 29.5137 9.6849 29.5137 14.584V17.2158C29.5137 20.0413 29.001 22.3314 27.9756 24.0859C26.973 25.8405 25.4349 26.9912 23.3613 27.5381C26.0729 28.2217 27.8844 29.8281 28.7959 32.3574C29.7301 34.8639 30.1973 37.9287 30.1973 41.5518C30.1973 45.4482 29.8327 48.8548 29.1035 51.7715C28.3743 54.6882 27.0527 56.9554 25.1387 58.5732C23.2246 60.1911 20.5016 61 16.9697 61H0.666016ZM12.4238 23.5049H14.8848C16.0013 23.5049 16.7191 23.0719 17.0381 22.2061C17.3571 21.3402 17.5166 20.3034 17.5166 19.0957V13.0459C17.5166 11.109 16.6621 10.1406 14.9531 10.1406H12.4238V23.5049ZM13.6201 50.4043C16.7419 50.4043 18.3027 48.9232 18.3027 45.9609V38.4414C18.3027 36.7324 18.0407 35.388 17.5166 34.4082C17.0153 33.4056 16.0583 32.9043 14.6455 32.9043H12.4238V50.3359C12.9251 50.3815 13.3239 50.4043 13.6201 50.4043ZM41.1621 61V0.84375H59.6191C62.6953 0.84375 65.0195 1.55013 66.5918 2.96289C68.1641 4.35286 69.2122 6.3125 69.7363 8.8418C70.2832 11.3483 70.5566 14.2992 70.5566 17.6943C70.5566 20.9756 70.1351 23.596 69.292 25.5557C68.4717 27.5153 66.9108 28.8711 64.6094 29.623C66.5007 30.0104 67.8223 30.9561 68.5742 32.46C69.349 33.9411 69.7363 35.8665 69.7363 38.2363V61H57.876V37.4502C57.876 35.6956 57.5114 34.6133 56.7822 34.2031C56.0758 33.7702 54.9251 33.5537 53.3301 33.5537V61H41.1621ZM53.3984 23.1289H56.3037C57.9671 23.1289 58.7988 21.3174 58.7988 17.6943C58.7988 15.3473 58.6165 13.8092 58.252 13.0801C57.8874 12.3509 57.2038 11.9863 56.2012 11.9863H53.3984V23.1289ZM79.8809 61L85.6914 0.84375H106.097L111.805 61H100.423L99.5684 51.293H92.3223L91.5703 61H79.8809ZM93.1768 41.6885H98.6455L96.0137 11.0977H95.4668L93.1768 41.6885ZM121.949 61V0.84375H133.57V61H121.949ZM145.355 61V0.84375H157.729L163.266 29.6572V0.84375H174.887V61H163.129L157.113 30.9219V61H145.355ZM191.936 61L185.476 0.84375H197.233L200.549 38.8174L203.933 0.84375H215.144L218.356 38.8174L221.569 0.84375H233.464L226.901 61H212.478L209.47 32.0498L206.599 61H191.936ZM241.455 61L247.266 0.84375H267.671L273.379 61H261.997L261.143 51.293H253.896L253.145 61H241.455ZM254.751 41.6885H260.22L257.588 11.0977H257.041L254.751 41.6885ZM288.104 61L280.687 0.80957H292.137L296.546 41.7568L300.477 0.80957H311.927L304.51 61H288.104ZM322.447 61V0.84375H346.51V12.4648H334.684V24.1885H346.031V35.502H334.684V49.2764H347.296V61H322.447Z" fill="url(#paint0_linear_434_80)"/>
<path d="M0.666016 61H-2.33398V64H0.666016V61ZM0.666016 0.84375V-2.15625H-2.33398V0.84375H0.666016ZM26.5059 4.05664L24.3041 6.0944L24.3154 6.10655L24.3268 6.11858L26.5059 4.05664ZM27.9756 24.0859L25.3855 22.5722L25.3781 22.5848L25.3709 22.5975L27.9756 24.0859ZM23.3613 27.5381L22.5963 24.6373L22.628 30.4471L23.3613 27.5381ZM28.7959 32.3574L25.9736 33.3745L25.9791 33.3899L25.9848 33.4052L28.7959 32.3574ZM12.4238 23.5049H9.42383V26.5049H12.4238V23.5049ZM12.4238 10.1406V7.14062H9.42383V10.1406H12.4238ZM17.5166 34.4082L14.8333 35.7498L14.8518 35.7868L14.8712 35.8232L17.5166 34.4082ZM12.4238 32.9043V29.9043H9.42383V32.9043H12.4238ZM12.4238 50.3359H9.42383V53.0756L12.1522 53.3236L12.4238 50.3359ZM3.66602 61V0.84375H-2.33398V61H3.66602ZM0.666016 3.84375H16.9697V-2.15625H0.666016V3.84375ZM16.9697 3.84375C20.9262 3.84375 23.1216 4.81673 24.3041 6.0944L28.7076 2.01888C25.9252 -0.987312 21.7633 -2.15625 16.9697 -2.15625V3.84375ZM24.3268 6.11858C25.5452 7.40627 26.5137 9.96486 26.5137 14.584H32.5137C32.5137 9.40493 31.4769 4.94529 28.6849 1.99471L24.3268 6.11858ZM26.5137 14.584V17.2158H32.5137V14.584H26.5137ZM26.5137 17.2158C26.5137 19.7074 26.0576 21.4221 25.3855 22.5722L30.5657 25.5996C31.9444 23.2406 32.5137 20.3753 32.5137 17.2158H26.5137ZM25.3709 22.5975C24.7937 23.6075 23.945 24.2816 22.5963 24.6373L24.1264 30.4389C26.9248 29.7009 29.1523 28.0735 30.5803 25.5744L25.3709 22.5975ZM22.628 30.4471C24.4183 30.8984 25.4163 31.8282 25.9736 33.3745L31.6182 31.3404C30.3525 27.828 27.7275 25.5449 24.0947 24.6291L22.628 30.4471ZM25.9848 33.4052C26.7585 35.4809 27.1973 38.1679 27.1973 41.5518H33.1973C33.1973 37.6896 32.7018 34.2469 31.607 31.3097L25.9848 33.4052ZM27.1973 41.5518C27.1973 45.271 26.8483 48.4232 26.1931 51.0439L32.0139 52.4991C32.8171 49.2864 33.1973 45.6254 33.1973 41.5518H27.1973ZM26.1931 51.0439C25.5853 53.4748 24.5459 55.1462 23.2021 56.282L27.0753 60.8644C29.5595 58.7646 31.1633 55.9015 32.0139 52.4991L26.1931 51.0439ZM23.2021 56.282C22.0142 57.286 20.0794 58 16.9697 58V64C20.9239 64 24.435 63.0961 27.0753 60.8644L23.2021 56.282ZM16.9697 58H0.666016V64H16.9697V58ZM12.4238 26.5049H14.8848V20.5049H12.4238V26.5049ZM14.8848 26.5049C15.8131 26.5049 16.8528 26.3264 17.81 25.7491C18.8121 25.1446 19.4833 24.247 19.8531 23.2432L14.2231 21.1689C14.2422 21.1169 14.2877 21.0176 14.3794 20.9027C14.4735 20.7849 14.5889 20.6849 14.711 20.6113C14.9505 20.4669 15.073 20.5049 14.8848 20.5049V26.5049ZM19.8531 23.2432C20.3257 21.9604 20.5166 20.5539 20.5166 19.0957H14.5166C14.5166 20.0528 14.3885 20.72 14.2231 21.1689L19.8531 23.2432ZM20.5166 19.0957V13.0459H14.5166V19.0957H20.5166ZM20.5166 13.0459C20.5166 11.701 20.2281 10.1319 19.1252 8.88208C17.9592 7.56058 16.3743 7.14062 14.9531 7.14062V13.1406C15.1044 13.1406 15.105 13.1628 15.0144 13.1286C14.967 13.1107 14.9016 13.0798 14.8283 13.03C14.7543 12.9796 14.6855 12.919 14.6262 12.8518C14.5037 12.713 14.4741 12.607 14.4783 12.6213C14.4854 12.6454 14.5166 12.7726 14.5166 13.0459H20.5166ZM14.9531 7.14062H12.4238V13.1406H14.9531V7.14062ZM9.42383 10.1406V23.5049H15.4238V10.1406H9.42383ZM13.6201 53.4043C15.6053 53.4043 17.6516 52.9362 19.1971 51.4697C20.772 49.9752 21.3027 47.9458 21.3027 45.9609H15.3027C15.3027 46.4464 15.2378 46.745 15.1796 46.9106C15.1271 47.0601 15.0803 47.1048 15.0671 47.1173C15.0517 47.1319 14.7567 47.4043 13.6201 47.4043V53.4043ZM21.3027 45.9609V38.4414H15.3027V45.9609H21.3027ZM21.3027 38.4414C21.3027 36.4807 21.0111 34.5808 20.162 32.9932L14.8712 35.8232C15.0702 36.1952 15.3027 36.9841 15.3027 38.4414H21.3027ZM20.1999 33.0666C19.0497 30.7662 16.8415 29.9043 14.6455 29.9043V35.9043C15.0111 35.9043 15.0935 35.9706 15.0308 35.9378C14.9965 35.9198 14.9482 35.8868 14.9015 35.8387C14.8556 35.7914 14.8356 35.7545 14.8333 35.7498L20.1999 33.0666ZM14.6455 29.9043H12.4238V35.9043H14.6455V29.9043ZM9.42383 32.9043V50.3359H15.4238V32.9043H9.42383ZM12.1522 53.3236C12.6909 53.3726 13.1923 53.4043 13.6201 53.4043V47.4043C13.4555 47.4043 13.1594 47.3904 12.6954 47.3483L12.1522 53.3236ZM41.1621 61H38.1621V64H41.1621V61ZM41.1621 0.84375V-2.15625H38.1621V0.84375H41.1621ZM66.5918 2.96289L64.5867 5.19438L64.5957 5.20248L64.6048 5.2105L66.5918 2.96289ZM69.7363 8.8418L66.7987 9.45049L66.8019 9.46591L66.8053 9.4813L69.7363 8.8418ZM69.292 25.5557L66.5362 24.37L66.5304 24.3836L66.5247 24.3972L69.292 25.5557ZM64.6094 29.623L63.6777 26.7714L52.9109 30.2892L64.0074 32.562L64.6094 29.623ZM68.5742 32.46L65.8909 33.8016L65.9032 33.8261L65.9159 33.8504L68.5742 32.46ZM69.7363 61V64H72.7363V61H69.7363ZM57.876 61H54.876V64H57.876V61ZM56.7822 34.2031L55.2145 36.7609L55.2625 36.7903L55.3114 36.8179L56.7822 34.2031ZM53.3301 33.5537V30.5537H50.3301V33.5537H53.3301ZM53.3301 61V64H56.3301V61H53.3301ZM53.3984 23.1289H50.3984V26.1289H53.3984V23.1289ZM53.3984 11.9863V8.98633H50.3984V11.9863H53.3984ZM44.1621 61V0.84375H38.1621V61H44.1621ZM41.1621 3.84375H59.6191V-2.15625H41.1621V3.84375ZM59.6191 3.84375C62.2868 3.84375 63.7701 4.4606 64.5867 5.19438L68.5969 0.7314C66.269 -1.36034 63.1038 -2.15625 59.6191 -2.15625V3.84375ZM64.6048 5.2105C65.5884 6.08006 66.3752 7.40642 66.7987 9.45049L72.6739 8.23311C72.0493 5.21858 70.7397 2.62566 68.5788 0.715279L64.6048 5.2105ZM66.8053 9.4813C67.2943 11.7228 67.5566 14.4496 67.5566 17.6943H73.5566C73.5566 14.1487 73.2721 10.9738 72.6674 8.20229L66.8053 9.4813ZM67.5566 17.6943C67.5566 20.765 67.1552 22.9312 66.5362 24.37L72.0478 26.7413C73.115 24.2608 73.5566 21.1862 73.5566 17.6943H67.5566ZM66.5247 24.3972C66.0901 25.4353 65.2792 26.2481 63.6777 26.7714L65.5411 32.4747C68.5424 31.4941 70.8532 29.5953 72.0593 26.7141L66.5247 24.3972ZM64.0074 32.562C65.1476 32.7956 65.6152 33.2501 65.8909 33.8016L71.2575 31.1183C70.0293 28.662 67.8537 27.2253 65.2113 26.6841L64.0074 32.562ZM65.9159 33.8504C66.3922 34.761 66.7363 36.161 66.7363 38.2363H72.7363C72.7363 35.5721 72.3057 33.1212 71.2325 31.0695L65.9159 33.8504ZM66.7363 38.2363V61H72.7363V38.2363H66.7363ZM69.7363 58H57.876V64H69.7363V58ZM60.876 61V37.4502H54.876V61H60.876ZM60.876 37.4502C60.876 36.4025 60.7719 35.3336 60.4456 34.3649C60.1137 33.3796 59.4682 32.2719 58.253 31.5884L55.3114 36.8179C54.8254 36.5445 54.7268 36.1831 54.7595 36.2802C54.7743 36.324 54.8057 36.4371 54.8321 36.6427C54.8582 36.8459 54.876 37.112 54.876 37.4502H60.876ZM58.3499 31.6453C56.9066 30.7607 55.0509 30.5537 53.3301 30.5537V36.5537C54.0034 36.5537 54.4944 36.6003 54.8348 36.6644C55.1882 36.7308 55.2723 36.7964 55.2145 36.7609L58.3499 31.6453ZM50.3301 33.5537V61H56.3301V33.5537H50.3301ZM53.3301 58H41.1621V64H53.3301V58ZM53.3984 26.1289H56.3037V20.1289H53.3984V26.1289ZM56.3037 26.1289C57.2999 26.1289 58.2924 25.8452 59.1579 25.2169C59.9915 24.6117 60.5399 23.8094 60.9014 23.022C61.59 21.5222 61.7988 19.6412 61.7988 17.6943H55.7988C55.7988 18.4929 55.7525 19.1275 55.6774 19.6181C55.6009 20.1179 55.5055 20.3946 55.4487 20.5185C55.3943 20.6369 55.423 20.5139 55.6328 20.3616C55.8745 20.1861 56.1392 20.1289 56.3037 20.1289V26.1289ZM61.7988 17.6943C61.7988 16.4563 61.7514 15.3569 61.6413 14.4274C61.5392 13.5662 61.3555 12.579 60.9352 11.7384L55.5687 14.4217C55.513 14.3103 55.6027 14.4567 55.683 15.1336C55.7551 15.7423 55.7988 16.5854 55.7988 17.6943H61.7988ZM60.9352 11.7384C59.9357 9.7393 58.0258 8.98633 56.2012 8.98633V14.9863C56.3506 14.9863 56.2558 15.0144 56.0541 14.9068C55.9514 14.8521 55.8463 14.7749 55.7527 14.6773C55.6602 14.5807 55.6019 14.4882 55.5687 14.4217L60.9352 11.7384ZM56.2012 8.98633H53.3984V14.9863H56.2012V8.98633ZM50.3984 11.9863V23.1289H56.3984V11.9863H50.3984ZM79.8809 61L76.8948 60.7116L76.5771 64H79.8809V61ZM85.6914 0.84375V-2.15625H82.9672L82.7053 0.555321L85.6914 0.84375ZM106.097 0.84375L109.083 0.560364L108.825 -2.15625H106.097V0.84375ZM111.805 61V64H115.103L114.791 60.7166L111.805 61ZM100.423 61L97.4344 61.2631L97.6753 64H100.423V61ZM99.5684 51.293L102.557 51.0299L102.316 48.293H99.5684V51.293ZM92.3223 51.293V48.293H89.5457L89.3312 51.0613L92.3223 51.293ZM91.5703 61V64H94.3469L94.5613 61.2317L91.5703 61ZM93.1768 41.6885L90.1851 41.4645L89.9438 44.6885H93.1768V41.6885ZM98.6455 41.6885V44.6885H101.915L101.634 41.4313L98.6455 41.6885ZM96.0137 11.0977L99.0026 10.8405L98.7667 8.09766H96.0137V11.0977ZM95.4668 11.0977V8.09766H92.683L92.4752 10.8737L95.4668 11.0977ZM82.867 61.2884L88.6775 1.13218L82.7053 0.555321L76.8948 60.7116L82.867 61.2884ZM85.6914 3.84375H106.097V-2.15625H85.6914V3.84375ZM103.11 1.12714L108.818 61.2834L114.791 60.7166L109.083 0.560364L103.11 1.12714ZM111.805 58H100.423V64H111.805V58ZM103.411 60.7369L102.557 51.0299L96.5799 51.556L97.4344 61.2631L103.411 60.7369ZM99.5684 48.293H92.3223V54.293H99.5684V48.293ZM89.3312 51.0613L88.5793 60.7683L94.5613 61.2317L95.3133 51.5247L89.3312 51.0613ZM91.5703 58H79.8809V64H91.5703V58ZM93.1768 44.6885H98.6455V38.6885H93.1768V44.6885ZM101.634 41.4313L99.0026 10.8405L93.0247 11.3548L95.6565 41.9456L101.634 41.4313ZM96.0137 8.09766H95.4668V14.0977H96.0137V8.09766ZM92.4752 10.8737L90.1851 41.4645L96.1684 41.9124L98.4584 11.3216L92.4752 10.8737ZM121.949 61H118.949V64H121.949V61ZM121.949 0.84375V-2.15625H118.949V0.84375H121.949ZM133.57 0.84375H136.57V-2.15625H133.57V0.84375ZM133.57 61V64H136.57V61H133.57ZM124.949 61V0.84375H118.949V61H124.949ZM121.949 3.84375H133.57V-2.15625H121.949V3.84375ZM130.57 0.84375V61H136.57V0.84375H130.57ZM133.57 58H121.949V64H133.57V58ZM145.355 61H142.355V64H145.355V61ZM145.355 0.84375V-2.15625H142.355V0.84375H145.355ZM157.729 0.84375L160.675 0.277596L160.207 -2.15625H157.729V0.84375ZM163.266 29.6572L160.32 30.2234L166.266 29.6572H163.266ZM163.266 0.84375V-2.15625H160.266V0.84375H163.266ZM174.887 0.84375H177.887V-2.15625H174.887V0.84375ZM174.887 61V64H177.887V61H174.887ZM163.129 61L160.187 61.5883L160.669 64H163.129V61ZM157.113 30.9219L160.055 30.3335L154.113 30.9219H157.113ZM157.113 61V64H160.113V61H157.113ZM148.355 61V0.84375H142.355V61H148.355ZM145.355 3.84375H157.729V-2.15625H145.355V3.84375ZM154.782 1.4099L160.32 30.2234L166.212 29.0911L160.675 0.277596L154.782 1.4099ZM166.266 29.6572V0.84375H160.266V29.6572H166.266ZM163.266 3.84375H174.887V-2.15625H163.266V3.84375ZM171.887 0.84375V61H177.887V0.84375H171.887ZM174.887 58H163.129V64H174.887V58ZM166.071 60.4117L160.055 30.3335L154.172 31.5102L160.187 61.5883L166.071 60.4117ZM154.113 30.9219V61H160.113V30.9219H154.113ZM157.113 58H145.355V64H157.113V58ZM191.936 61L188.953 61.3203L189.24 64H191.936V61ZM185.476 0.84375V-2.15625H182.136L182.493 1.16407L185.476 0.84375ZM197.233 0.84375L200.222 0.582817L199.983 -2.15625H197.233V0.84375ZM200.549 38.8174L197.56 39.0783L203.537 39.0836L200.549 38.8174ZM203.933 0.84375V-2.15625H201.188L200.944 0.577477L203.933 0.84375ZM215.144 0.84375L218.133 0.590828L217.9 -2.15625H215.144V0.84375ZM218.356 38.8174L215.367 39.0703H221.346L218.356 38.8174ZM221.569 0.84375V-2.15625H218.812L218.58 0.590828L221.569 0.84375ZM233.464 0.84375L236.446 1.16909L236.809 -2.15625H233.464V0.84375ZM226.901 61V64H229.592L229.884 61.3253L226.901 61ZM212.478 61L209.494 61.31L209.773 64H212.478V61ZM209.47 32.0498L212.454 31.7398L206.484 31.7537L209.47 32.0498ZM206.599 61V64H209.316L209.584 61.2961L206.599 61ZM194.918 60.6797L188.458 0.52343L182.493 1.16407L188.953 61.3203L194.918 60.6797ZM185.476 3.84375H197.233V-2.15625H185.476V3.84375ZM194.245 1.10468L197.56 39.0783L203.537 38.5564L200.222 0.582817L194.245 1.10468ZM203.537 39.0836L206.921 1.11002L200.944 0.577477L197.561 38.5511L203.537 39.0836ZM203.933 3.84375H215.144V-2.15625H203.933V3.84375ZM212.154 1.09667L215.367 39.0703L221.346 38.5645L218.133 0.590828L212.154 1.09667ZM221.346 39.0703L224.559 1.09667L218.58 0.590828L215.367 38.5645L221.346 39.0703ZM221.569 3.84375H233.464V-2.15625H221.569V3.84375ZM230.482 0.51841L223.919 60.6747L229.884 61.3253L236.446 1.16909L230.482 0.51841ZM226.901 58H212.478V64H226.901V58ZM215.461 60.69L212.454 31.7398L206.486 32.3598L209.494 61.31L215.461 60.69ZM206.484 31.7537L203.613 60.7039L209.584 61.2961L212.455 32.3459L206.484 31.7537ZM206.599 58H191.936V64H206.599V58ZM241.455 61L238.469 60.7116L238.151 64H241.455V61ZM247.266 0.84375V-2.15625H244.541L244.28 0.555321L247.266 0.84375ZM267.671 0.84375L270.657 0.560364L270.4 -2.15625H267.671V0.84375ZM273.379 61V64H276.677L276.365 60.7166L273.379 61ZM261.997 61L259.009 61.2631L259.25 64H261.997V61ZM261.143 51.293L264.131 51.0299L263.89 48.293H261.143V51.293ZM253.896 51.293V48.293H251.12L250.905 51.0613L253.896 51.293ZM253.145 61V64H255.921L256.136 61.2317L253.145 61ZM254.751 41.6885L251.759 41.4645L251.518 44.6885H254.751V41.6885ZM260.22 41.6885V44.6885H263.489L263.209 41.4313L260.22 41.6885ZM257.588 11.0977L260.577 10.8405L260.341 8.09766H257.588V11.0977ZM257.041 11.0977V8.09766H254.257L254.049 10.8737L257.041 11.0977ZM244.441 61.2884L250.252 1.13218L244.28 0.555321L238.469 60.7116L244.441 61.2884ZM247.266 3.84375H267.671V-2.15625H247.266V3.84375ZM264.684 1.12714L270.392 61.2834L276.365 60.7166L270.657 0.560364L264.684 1.12714ZM273.379 58H261.997V64H273.379V58ZM264.986 60.7369L264.131 51.0299L258.154 51.556L259.009 61.2631L264.986 60.7369ZM261.143 48.293H253.896V54.293H261.143V48.293ZM250.905 51.0613L250.153 60.7683L256.136 61.2317L256.888 51.5247L250.905 51.0613ZM253.145 58H241.455V64H253.145V58ZM254.751 44.6885H260.22V38.6885H254.751V44.6885ZM263.209 41.4313L260.577 10.8405L254.599 11.3548L257.231 41.9456L263.209 41.4313ZM257.588 8.09766H257.041V14.0977H257.588V8.09766ZM254.049 10.8737L251.759 41.4645L257.743 41.9124L260.033 11.3216L254.049 10.8737ZM288.104 61L285.126 61.3669L285.451 64H288.104V61ZM280.687 0.80957V-2.19043H277.294L277.709 1.17647L280.687 0.80957ZM292.137 0.80957L295.119 0.488388L294.831 -2.19043H292.137V0.80957ZM296.546 41.7568L293.563 42.078L299.532 42.0435L296.546 41.7568ZM300.477 0.80957V-2.19043H297.751L297.49 0.522911L300.477 0.80957ZM311.927 0.80957L314.904 1.17647L315.319 -2.19043H311.927V0.80957ZM304.51 61V64H307.163L307.487 61.3669L304.51 61ZM291.081 60.6331L283.664 0.442673L277.709 1.17647L285.126 61.3669L291.081 60.6331ZM280.687 3.80957H292.137V-2.19043H280.687V3.80957ZM289.154 1.13075L293.563 42.078L299.529 41.4357L295.119 0.488388L289.154 1.13075ZM299.532 42.0435L303.463 1.09623L297.49 0.522911L293.56 41.4702L299.532 42.0435ZM300.477 3.80957H311.927V-2.19043H300.477V3.80957ZM308.949 0.442673L301.532 60.6331L307.487 61.3669L314.904 1.17647L308.949 0.442673ZM304.51 58H288.104V64H304.51V58ZM322.447 61H319.447V64H322.447V61ZM322.447 0.84375V-2.15625H319.447V0.84375H322.447ZM346.51 0.84375H349.51V-2.15625H346.51V0.84375ZM346.51 12.4648V15.4648H349.51V12.4648H346.51ZM334.684 12.4648V9.46484H331.684V12.4648H334.684ZM334.684 24.1885H331.684V27.1885H334.684V24.1885ZM346.031 24.1885H349.031V21.1885H346.031V24.1885ZM346.031 35.502V38.502H349.031V35.502H346.031ZM334.684 35.502V32.502H331.684V35.502H334.684ZM334.684 49.2764H331.684V52.2764H334.684V49.2764ZM347.296 49.2764H350.296V46.2764H347.296V49.2764ZM347.296 61V64H350.296V61H347.296ZM325.447 61V0.84375H319.447V61H325.447ZM322.447 3.84375H346.51V-2.15625H322.447V3.84375ZM343.51 0.84375V12.4648H349.51V0.84375H343.51ZM346.51 9.46484H334.684V15.4648H346.51V9.46484ZM331.684 12.4648V24.1885H337.684V12.4648H331.684ZM334.684 27.1885H346.031V21.1885H334.684V27.1885ZM343.031 24.1885V35.502H349.031V24.1885H343.031ZM346.031 32.502H334.684V38.502H346.031V32.502ZM331.684 35.502V49.2764H337.684V35.502H331.684ZM334.684 52.2764H347.296V46.2764H334.684V52.2764ZM344.296 49.2764V61H350.296V49.2764H344.296ZM347.296 58H322.447V64H347.296V58Z" fill="black" mask="url(#path-1-outside-1_434_80)"/>
<defs>
<linearGradient id="paint0_linear_434_80" x1="-2" y1="-113" x2="238.946" y2="196.415" gradientUnits="userSpaceOnUse">
<stop stop-color="#FEB055"/>
<stop offset="0.307292" stop-color="#FE7F56"/>
<stop offset="0.661458" stop-color="#F05A54"/>
<stop offset="1" stop-color="#D82C6A"/>
</linearGradient>
</defs>
</svg>
